<?xml version="1.0" encoding="UTF-8"?><svg id="Capa_1" xmlns="http://www.w3.org/2000/svg" xmlns:xlink="http://www.w3.org/1999/xlink" viewBox="0 0 802.08 908.34"><defs><style>.cls-1{fill:url(#Degradado_sin_nombre_24);}.cls-2{fill:url(#Degradado_sin_nombre_8);}.cls-3{fill:url(#Degradado_sin_nombre_176);}</style><linearGradient id="Degradado_sin_nombre_8" x1="401.04" y1="0" x2="401.04" y2="715.59" gradientUnits="userSpaceOnUse"><stop offset="0" stop-color="#063a45"/><stop offset="1" stop-color="#00212d"/></linearGradient><linearGradient id="Degradado_sin_nombre_176" x1="41.4" y1="649.45" x2="802.08" y2="649.45" gradientUnits="userSpaceOnUse"><stop offset="0" stop-color="#7cc3c4"/><stop offset="1" stop-color="#0086aa"/></linearGradient><linearGradient id="Degradado_sin_nombre_24" x1="401.04" y1="149.1" x2="401.04" y2="563.29" gradientUnits="userSpaceOnUse"><stop offset="0" stop-color="#f4dd7b"/><stop offset="1" stop-color="#df5141"/></linearGradient></defs><path class="cls-2" d="M91.05,625.01c92.13,8.24,196.06,38.72,308.98,90.58,21.6-12.5,44.31-26.69,68.2-42.76,153.47-103.23,255.79-203.42,304.11-297.79,19.89-38.85,28.03-72.17,29.74-99.74v-19.38c0-20.59-11.01-39.64-28.83-49.94L429.87,7.72c-17.86-10.3-39.84-10.3-57.67,0L28.83,205.99C10.97,216.28,0,235.33,0,255.93v240.8c0,44.07,8.87,86.86,25.34,126.23,21.24-.62,43.14.03,65.71,2.05Z"/><path class="cls-3" d="M363.22,735.86c-69.15,36.09-125.59,53.89-171.02,60.84l-28.55-16.49c-36.28-20.99-67.57-48.28-92.76-80.08-11.02-13.9-20.88-28.67-29.49-44.13,93.18.13,200.79,26.77,321.82,79.85ZM486.95,700.68c-16.88,11.35-33.5,21.99-49.85,31.92,71.63,32.4,126.01,53.6,167.29,67.26l34.01-19.64c34.54-19.96,64.56-45.67,89.11-75.53,2.22-2.69,4.4-5.42,6.5-8.2,43.45-56.36,68.08-126.3,68.08-199.77v-106.17c-50.99,99.42-157.01,203.75-315.13,310.11ZM401.58,753.26c-55.75,31.05-108.05,53.35-156.17,66.45-3.1.85-6.17,1.61-9.25,2.38l73.94,42.69,62.1,35.84c17.82,10.3,39.8,10.3,57.67,0l136.02-78.54c-43.84-15.83-97.75-38.11-164.32-68.82Z"/><path class="cls-1" d="M199.78,360.58c3.03.58,6.15.66,9.24.97,11.12,1.12,22.24,2.18,33.34,3.41,10.96,1.21,21.89,2.67,32.85,3.89,10.97,1.22,21.96,2.23,32.93,3.41,11.77,1.27,23.53,2.62,35.29,3.97,5.27.6,10.53,1.28,16.44,2.01-10.9,13.58-21.33,26.59-31.78,39.59-7.93,9.87-15.97,19.66-23.7,29.69-.89,1.15-.84,4.24.08,5.23.92.99,4.08,1.33,5.19.5,7.13-5.3,13.97-10.99,20.9-16.57,15.33-12.33,30.64-24.67,45.99-36.95.72-.57,1.8-.7,2.92-1.11,1.55,13.91,3.07,27.27,4.52,40.64,1.17,10.85,2.16,21.71,3.38,32.56,1.78,15.78,3.77,31.54,5.54,47.33,1.48,13.11,2.64,26.27,4.31,39.35.22,1.75,2.65,3.21,4.06,4.8,1.33-1.6,3.54-3.07,3.82-4.83,1.21-7.71,1.81-15.51,2.71-23.27,1.55-13.37,3.25-26.72,4.72-40.1,1.5-13.66,2.74-27.34,4.19-41,1.54-14.46,3.18-28.91,4.85-43.35.47-4.07,1.16-8.12,1.81-12.6,1.02.58,1.51.78,1.9,1.09,10.53,8.4,21.06,16.79,31.55,25.23,11.65,9.37,23.31,18.75,34.87,28.22,2.06,1.69,3.92,2.49,6.05.56,2.07-1.89,1.85-3.85.11-6.01-7.1-8.81-14.06-17.73-21.14-26.55-9.53-11.87-19.14-23.68-28.69-35.54-1.62-2.02-3.11-4.15-5.11-6.82,5.9-.77,10.91-1.52,15.94-2.06,13.38-1.44,26.78-2.71,40.15-4.2,18.45-2.05,36.87-4.32,55.32-6.36,13.51-1.5,27.05-2.76,40.56-4.21,3.46-.37,6.96-.83,10.29-1.79,1.11-.32,2.3-2.32,2.38-3.61.07-1.09-1.18-2.64-2.27-3.34-1.17-.74-2.81-.86-4.26-1.01-10.97-1.17-21.96-2.21-32.93-3.43-10.96-1.22-21.89-2.69-32.85-3.89-11.24-1.23-22.51-2.21-33.75-3.42-14.18-1.53-28.34-3.15-42.51-4.79-5.12-.59-10.23-1.33-15.9-2.08.88-1.4,1.28-2.22,1.84-2.91,5.02-6.17,10.12-12.27,15.08-18.48,12.52-15.69,24.91-31.48,37.54-47.07,1.89-2.34,2.46-4.07.41-6.26-2.32-2.47-4.41-.98-6.39.58-2.11,1.68-4.12,3.48-6.23,5.17-15.87,12.71-31.75,25.41-47.65,38.1-4.56,3.65-9.17,7.24-14.46,11.41-1.45-12.49-2.87-24.08-4.13-35.69-1.21-11.11-2.14-22.26-3.39-33.37-1.76-15.78-3.74-31.55-5.55-47.33-1.7-14.85-3.19-29.72-5.07-44.54-.21-1.66-2.39-3.07-3.66-4.6-1.44,1.41-3.9,2.65-4.16,4.26-1.23,7.57-1.9,15.23-2.7,22.86-.9,8.58-1.68,17.16-2.61,25.74-1.25,11.51-2.62,23-3.9,34.51-.9,8.03-1.71,16.07-2.6,24.11-1.29,11.77-2.6,23.55-3.93,35.32-.66,5.85-1.37,11.69-2.12,18.1-1.32-.56-2.17-.72-2.77-1.2-8.62-6.91-17.18-13.89-25.8-20.8-13.34-10.7-26.76-21.31-40.02-32.11-2.29-1.87-4.39-2.49-6.39-.43-2.13,2.2-.77,4.55.81,6.52,3.88,4.84,7.86,9.59,11.74,14.43,9.43,11.78,18.82,23.58,28.21,35.38,4.74,5.96,9.47,11.93,14.6,18.41-8.8.99-16.91,1.93-25.02,2.81-8.3.9-16.61,1.7-24.9,2.62-11.36,1.26-22.71,2.64-34.07,3.89-8.43.93-16.88,1.69-25.31,2.62-11.36,1.25-22.71,2.62-34.07,3.89-5.62.63-11.27,1-16.86,1.82-2.28.34-5.01.9-5.07,4.23-.06,3.58,2.83,4.01,5.26,4.48Z"/></svg>